<svg xmlns="http://www.w3.org/2000/svg" width="37.664" height="37.664" viewBox="0 0 37.664 37.664">
  <path id="Icon_metro-copyright" data-name="Icon metro-copyright" d="M32.969,27.6v2.673a3.105,3.105,0,0,1-.895,2.182,5.946,5.946,0,0,1-2.3,1.483,16.856,16.856,0,0,1-2.893.8,16.1,16.1,0,0,1-2.881.27A11.335,11.335,0,0,1,15.6,31.6a11.582,11.582,0,0,1-3.372-8.484A11.4,11.4,0,0,1,23.871,11.469a17.3,17.3,0,0,1,1.851.11,15.822,15.822,0,0,1,2.28.441,11.7,11.7,0,0,1,2.268.834,4.884,4.884,0,0,1,1.692,1.385,3.152,3.152,0,0,1,.687,1.986V18.9a.347.347,0,0,1-.392.392H29.364a.347.347,0,0,1-.392-.392V17.182q0-1.054-1.606-1.655a9.544,9.544,0,0,0-3.372-.6,7.45,7.45,0,0,0-5.6,2.244,8.025,8.025,0,0,0-2.17,5.824,8.637,8.637,0,0,0,2.244,6.118,7.47,7.47,0,0,0,5.726,2.415,10.39,10.39,0,0,0,3.384-.588q1.716-.588,1.716-1.618V27.6a.382.382,0,0,1,.11-.282.353.353,0,0,1,.257-.11h2.918a.4.4,0,0,1,.27.11.363.363,0,0,1,.123.282ZM23.6,7.546A15.254,15.254,0,0,0,17.508,8.8a15.476,15.476,0,0,0-8.349,8.349,15.47,15.47,0,0,0,0,12.187,15.476,15.476,0,0,0,8.349,8.349,15.47,15.47,0,0,0,12.187,0,15.476,15.476,0,0,0,8.349-8.349,15.47,15.47,0,0,0,0-12.187A15.476,15.476,0,0,0,29.7,8.8,15.254,15.254,0,0,0,23.6,7.546ZM42.434,23.239a18.422,18.422,0,0,1-2.526,9.453,18.747,18.747,0,0,1-6.854,6.854A18.422,18.422,0,0,1,23.6,42.071a18.422,18.422,0,0,1-9.453-2.526A18.747,18.747,0,0,1,7.3,32.692,18.422,18.422,0,0,1,4.77,23.239,18.422,18.422,0,0,1,7.3,13.786a18.747,18.747,0,0,1,6.854-6.854A18.422,18.422,0,0,1,23.6,4.407a18.422,18.422,0,0,1,9.453,2.526,18.747,18.747,0,0,1,6.854,6.854A18.422,18.422,0,0,1,42.434,23.239Z" transform="translate(-4.77 -4.407)" fill="#fff"/>
</svg>
