<svg id="Gruppe_5" data-name="Gruppe 5" xmlns="http://www.w3.org/2000/svg" width="636.605" height="463" viewBox="0 0 636.605 463">
  <path id="Pfad_1" data-name="Pfad 1" d="M836.988,189.564H351.2a3.117,3.117,0,0,0-3.114-3.064H328.957a3.116,3.116,0,0,0-3.114,3.064h-4.686a3.117,3.117,0,0,0-3.115-3.064H298.91a3.117,3.117,0,0,0-3.115,3.064H278.747a37.359,37.359,0,0,0-37.317,37.316v.367c-.059,0-.115-.018-.174-.018h-.438a3.12,3.12,0,0,0-3.12,3.12v36.494a3.12,3.12,0,0,0,3.12,3.12h.437c.06,0,.116-.014.174-.018V612.184A37.359,37.359,0,0,0,278.747,649.5H836.988A37.359,37.359,0,0,0,874.3,612.184v-385.3a37.359,37.359,0,0,0-37.316-37.316Zm26.084,422.619a26.115,26.115,0,0,1-26.084,26.085H278.747a26.114,26.114,0,0,1-26.085-26.084v-385.3A26.114,26.114,0,0,1,278.747,200.8H836.988a26.114,26.114,0,0,1,26.084,26.084Z" transform="translate(-237.699 -186.5)" fill="#ccc"/>
  <path id="Pfad_2" data-name="Pfad 2" d="M838.193,645.622H279.953A32.361,32.361,0,0,1,247.628,613.3v-385.3a32.361,32.361,0,0,1,32.325-32.324h558.24a32.361,32.361,0,0,1,32.325,32.324V613.3A32.361,32.361,0,0,1,838.193,645.622Z" transform="translate(-238.904 -187.614)" fill="#e6e6e6"/>
  <path id="Pfad_3" data-name="Pfad 3" d="M841.825,623.181H283.243a7.123,7.123,0,0,1-7.114-7.115V232.425a7.122,7.122,0,0,1,7.114-7.114H841.825a7.122,7.122,0,0,1,7.115,7.114V616.066A7.123,7.123,0,0,1,841.825,623.181Z" transform="translate(-242.366 -191.213)" fill="#fff"/>
  <circle id="Ellipse_13" data-name="Ellipse 13" cx="2.671" cy="2.671" r="2.671" transform="translate(18.696 229.694)" fill="#fff"/>
  <path id="Pfad_4" data-name="Pfad 4" d="M493.618,283.092H374.954a35.15,35.15,0,0,0-35.11,35.11v10.726a1.63,1.63,0,0,0-2.062,1.591v8.248a1.63,1.63,0,0,0,2.062,1.591v12.489a1.63,1.63,0,0,0-2.062,1.591v20.62a1.63,1.63,0,0,0,2.062,1.591v7.54a1.63,1.63,0,0,0-2.062,1.591V406.4a1.63,1.63,0,0,0,2.062,1.591V625.748a35.15,35.15,0,0,0,35.11,35.11H493.618a35.149,35.149,0,0,0,35.11-35.11V318.2A35.15,35.15,0,0,0,493.618,283.092ZM521.3,625.748a27.718,27.718,0,0,1-27.686,27.686H374.954a27.718,27.718,0,0,1-27.687-27.687V318.2a27.718,27.718,0,0,1,27.686-27.687H493.618A27.718,27.718,0,0,1,521.3,318.2Z" transform="translate(-249.853 -198.23)" fill="#ccc"/>
  <path id="Pfad_5" data-name="Pfad 5" d="M494.359,658.015H375.7A31.847,31.847,0,0,1,343.885,626.2V318.657A31.847,31.847,0,0,1,375.7,286.847H494.359a31.847,31.847,0,0,1,31.811,31.811V626.2a31.847,31.847,0,0,1-31.811,31.81Z" transform="translate(-250.594 -198.686)" fill="#e6e6e6"/>
  <path id="Pfad_6" data-name="Pfad 6" d="M498.317,653.75H373.789A21.48,21.48,0,0,1,352.334,632.3V313.935a21.479,21.479,0,0,1,21.455-21.455h16.24a3.55,3.55,0,0,1,3.546,3.546A10.487,10.487,0,0,0,404.051,306.5h62.355a10.487,10.487,0,0,0,10.476-10.476,3.55,3.55,0,0,1,3.546-3.546h17.889a21.479,21.479,0,0,1,21.455,21.455v318.36A21.479,21.479,0,0,1,498.317,653.75Z" transform="translate(-251.62 -199.37)" fill="#fff"/>
  <path id="Pfad_7" data-name="Pfad 7" d="M451.447,300.239H436.6a1.65,1.65,0,0,1,0-3.3h14.847a1.65,1.65,0,0,1,0,3.3Z" transform="translate(-261.653 -199.912)" fill="#fff"/>
  <circle id="Ellipse_14" data-name="Ellipse 14" cx="0.825" cy="0.825" r="0.825" transform="translate(199.28 98.265)" fill="#fff"/>
  <path id="Pfad_8" data-name="Pfad 8" d="M466.415,388.9l.172,3.838c19.618-.879,42.334.83,66.512,4.865v-3.891C508.885,389.711,486.117,388.021,466.415,388.9Z" transform="translate(-265.475 -211.052)" fill="#ccc"/>
  <path id="Pfad_9" data-name="Pfad 9" d="M438.556,459.316q-.229,2.2-.372,4.433-.3,4.385-.3,8.839a128.4,128.4,0,0,0,91.754,122.987v-246A128.336,128.336,0,0,0,438.556,459.316Z" transform="translate(-262.009 -206.304)" fill="#3d796d"/>
  <circle id="Ellipse_15" data-name="Ellipse 15" cx="2.529" cy="2.529" r="2.529" transform="translate(109.993 173.585)" fill="#ccc"/>
  <circle id="Ellipse_16" data-name="Ellipse 16" cx="4.996" cy="4.996" r="4.996" transform="translate(102.135 270.107)" fill="#ccc"/>
  <circle id="Ellipse_17" data-name="Ellipse 17" cx="3.619" cy="3.619" r="3.619" transform="translate(197.602 140.633)" fill="#ccc"/>
  <circle id="Ellipse_18" data-name="Ellipse 18" cx="2.887" cy="2.887" r="2.887" transform="translate(116.005 342.784)" fill="#ccc"/>
  <circle id="Ellipse_19" data-name="Ellipse 19" cx="3.127" cy="3.127" r="3.127" transform="translate(174.082 382.728)" fill="#ccc"/>
  <path id="Pfad_10" data-name="Pfad 10" d="M302.993,80.016h-6.17v-6.17h-3.31v6.17H287.34v3.312h6.173V89.5h3.31v-6.17h6.17Z" transform="translate(-34.895 -8.968)" fill="#ccc"/>
  <circle id="Ellipse_20" data-name="Ellipse 20" cx="10.781" cy="10.781" r="10.781" transform="translate(212.492 233.94)" opacity="0.1" style="isolation: isolate"/>
  <circle id="Ellipse_21" data-name="Ellipse 21" cx="10.781" cy="10.781" r="10.781" transform="translate(217.882 309.897)" opacity="0.1" style="isolation: isolate"/>
  <path id="Pfad_11" data-name="Pfad 11" d="M438.261,464.172c-13.229-8.883-23.083-17.647-29.287-26.048-6.189-8.381-8.4-15.952-6.56-22.5s7.657-11.873,17.3-15.816c9.667-3.953,22.64-6.319,38.559-7.032l-.172-3.837c-34.088,1.528-55.178,10.637-59.386,25.649s9.076,33.756,37.4,52.778c23.1,15.512,54.043,29.838,88.666,41.184V504.5C490.98,493.33,460.814,479.317,438.261,464.172Z" transform="translate(-257.16 -211.084)" fill="#ccc"/>
  <path id="Pfad_12" data-name="Pfad 12" d="M443.15,477.635q-2.345-1.577-4.552-3.15-.229,2.2-.372,4.433,1.367.954,2.785,1.905c23.1,15.513,54.042,29.838,88.665,41.184v-4.044C495.872,506.792,465.707,492.779,443.15,477.635Z" transform="translate(-262.051 -221.474)" opacity="0.1" style="isolation: isolate"/>
  <path id="Pfad_13" data-name="Pfad 13" d="M600.509,406.22c-15.108-4.235-30.084-7.684-44.614-10.339v3.9c14.194,2.617,28.817,6,43.577,10.133,46.99,13.17,89.509,32.364,116.657,52.659l2.3-3.076C690.917,438.934,647.937,419.513,600.509,406.22Z" transform="translate(-276.341 -211.928)" fill="#ccc"/>
  <path id="Pfad_14" data-name="Pfad 14" d="M713.311,471.855A128.382,128.382,0,0,0,555.9,346.878V596.825a128.361,128.361,0,0,0,144.444-68.692q.993-2.024,1.909-4.087a127.829,127.829,0,0,0,11.063-52.19Z" transform="translate(-276.341 -205.573)" fill="#3d796d"/>
  <circle id="Ellipse_22" data-name="Ellipse 22" cx="1.47" cy="1.47" r="1.47" transform="translate(310.597 111.908)" fill="#f2f2f2"/>
  <circle id="Ellipse_23" data-name="Ellipse 23" cx="3.33" cy="3.33" r="3.33" transform="translate(408.218 118.869)" fill="#ccc"/>
  <circle id="Ellipse_24" data-name="Ellipse 24" cx="5.406" cy="5.406" r="5.406" transform="translate(524.243 254.996)" fill="#ccc"/>
  <circle id="Ellipse_25" data-name="Ellipse 25" cx="2.32" cy="2.32" r="2.32" transform="translate(485.054 171.732)" fill="#ccc"/>
  <circle id="Ellipse_26" data-name="Ellipse 26" cx="2.32" cy="2.32" r="2.32" transform="translate(476.935 247.12)" fill="#ccc"/>
  <path id="Pfad_15" data-name="Pfad 15" d="M471.834,460.332h-3.876v-3.874H465.88v3.874h-3.874v2.078h3.874v3.874h2.078V462.41h3.876Z" transform="translate(-56.107 -55.433)" fill="#ccc"/>
  <path id="Pfad_16" data-name="Pfad 16" d="M573.955,437.9h-2.9V435H569.5v2.9h-2.9v1.555h2.9v2.9h1.556v-2.9h2.9Z" transform="translate(-68.81 -52.827)" fill="#ccc"/>
  <circle id="Ellipse_27" data-name="Ellipse 27" cx="10.781" cy="10.781" r="10.781" transform="translate(299.816 155.042)" opacity="0.1" style="isolation: isolate"/>
  <circle id="Ellipse_28" data-name="Ellipse 28" cx="10.781" cy="10.781" r="10.781" transform="translate(299.816 250.601)" opacity="0.1" style="isolation: isolate"/>
  <circle id="Ellipse_29" data-name="Ellipse 29" cx="10.781" cy="10.781" r="10.781" transform="translate(357.642 192.775)" opacity="0.1" style="isolation: isolate"/>
  <circle id="Ellipse_30" data-name="Ellipse 30" cx="10.781" cy="10.781" r="10.781" transform="translate(393.416 265.793)" opacity="0.1" style="isolation: isolate"/>
  <path id="Pfad_17" data-name="Pfad 17" d="M742.647,492.4c-5.062-7.768-13.21-15.879-24.217-24.108l-2.3,3.076c21.39,15.991,31.354,31.276,28.057,43.04-1.836,6.551-7.657,11.872-17.3,15.816-9.667,3.953-22.641,6.319-38.559,7.032q-5.074.227-10.412.227c-31.147,0-68.7-5.768-107.1-16.53q-7.552-2.117-14.919-4.428v4.022q6.861,2.132,13.882,4.1c38.733,10.856,76.652,16.672,108.156,16.672,3.607,0,7.134-.076,10.565-.23,34.088-1.528,55.178-10.636,59.386-25.648C749.836,508.486,748.074,500.732,742.647,492.4Z" transform="translate(-276.341 -220.722)" fill="#ccc"/>
  <path id="Pfad_18" data-name="Pfad 18" d="M688.328,547.424q-5.072.226-10.414.226c-31.144,0-68.7-5.766-107.1-16.529q-7.552-2.117-14.919-4.428v4.023q6.861,2.132,13.881,4.1c38.735,10.855,76.651,16.671,108.157,16.671,3.607,0,7.137-.077,10.567-.231q6.215-.277,11.838-.887.994-2.024,1.909-4.087Q695.714,547.09,688.328,547.424Z" transform="translate(-276.341 -227.814)" opacity="0.1" style="isolation: isolate"/>
  <circle id="Ellipse_31" data-name="Ellipse 31" cx="14.057" cy="14.057" r="14.057" transform="translate(354.324 144.523)" fill="#fff"/>
  <path id="Pfad_19" data-name="Pfad 19" d="M654.271,343.45a20.092,20.092,0,0,0-20.092,20.092c0,11.1,20.092,47.535,20.092,47.535s20.092-36.438,20.092-47.535A20.092,20.092,0,0,0,654.271,343.45Zm0,29.893a9.311,9.311,0,1,1,9.311-9.311,9.311,9.311,0,0,1-9.311,9.311Z" transform="translate(-285.848 -205.56)" fill="#3f3d56"/>
  <circle id="Ellipse_32" data-name="Ellipse 32" cx="14.057" cy="14.057" r="14.057" transform="translate(296.339 195.479)" fill="#fff"/>
  <path id="Pfad_20" data-name="Pfad 20" d="M588.271,401.45a20.092,20.092,0,0,0-20.092,20.092c0,11.1,20.092,47.535,20.092,47.535s20.092-36.438,20.092-47.535A20.092,20.092,0,0,0,588.271,401.45Zm0,29.893a9.311,9.311,0,1,1,9.311-9.311,9.311,9.311,0,0,1-9.311,9.311Z" transform="translate(-277.833 -212.604)" fill="#3f3d56"/>
  <circle id="Ellipse_33" data-name="Ellipse 33" cx="14.057" cy="14.057" r="14.057" transform="translate(296.339 104.988)" fill="#fff"/>
  <path id="Pfad_21" data-name="Pfad 21" d="M588.271,298.45a20.092,20.092,0,0,0-20.092,20.092c0,11.1,20.092,47.535,20.092,47.535s20.092-36.438,20.092-47.535A20.092,20.092,0,0,0,588.271,298.45Zm0,29.893a9.311,9.311,0,1,1,9.311-9.311,9.311,9.311,0,0,1-9.311,9.311Z" transform="translate(-277.833 -200.095)" fill="#ccc"/>
  <circle id="Ellipse_34" data-name="Ellipse 34" cx="14.057" cy="14.057" r="14.057" transform="translate(390.344 213.929)" fill="#fff"/>
  <path id="Pfad_22" data-name="Pfad 22" d="M695.271,422.45a20.092,20.092,0,0,0-20.092,20.092c0,11.1,20.092,47.535,20.092,47.535s20.092-36.438,20.092-47.535A20.092,20.092,0,0,0,695.271,422.45Zm0,29.893a9.311,9.311,0,1,1,9.311-9.311,9.311,9.311,0,0,1-9.311,9.311Z" transform="translate(-290.827 -215.154)" fill="#ccc"/>
  <circle id="Ellipse_35" data-name="Ellipse 35" cx="14.057" cy="14.057" r="14.057" transform="translate(209.362 182.301)" fill="#fff"/>
  <path id="Pfad_23" data-name="Pfad 23" d="M489.271,386.45a20.092,20.092,0,0,0-20.092,20.092c0,11.1,20.092,47.535,20.092,47.535s20.092-36.438,20.092-47.535A20.092,20.092,0,0,0,489.271,386.45Zm0,29.893a9.311,9.311,0,1,1,9.311-9.311,9.311,9.311,0,0,1-9.311,9.311Z" transform="translate(-265.81 -210.782)" fill="#ccc"/>
  <circle id="Ellipse_36" data-name="Ellipse 36" cx="14.057" cy="14.057" r="14.057" transform="translate(214.633 258.735)" fill="#fff"/>
  <path id="Pfad_24" data-name="Pfad 24" d="M495.271,473.45a20.092,20.092,0,0,0-20.092,20.092c0,11.1,20.092,47.535,20.092,47.535s20.092-36.438,20.092-47.535A20.092,20.092,0,0,0,495.271,473.45Zm0,29.893a9.311,9.311,0,1,1,9.311-9.311,9.311,9.311,0,0,1-9.311,9.311Z" transform="translate(-266.539 -221.348)" fill="#3f3d56"/>
</svg>
