<svg xmlns="http://www.w3.org/2000/svg" xmlns:xlink="http://www.w3.org/1999/xlink" width="1920" height="1080" viewBox="0 0 1920 1080">
  <defs>
    <clipPath id="clip-footerBg">
      <rect width="1920" height="1080"/>
    </clipPath>
  </defs>
  <g id="footerBg" clip-path="url(#clip-footerBg)">
    <rect width="1920" height="1080" fill="#f1f5fe"/>
    <path id="Icon_metro-copyright" data-name="Icon metro-copyright" d="M32.969,27.6v2.673a3.105,3.105,0,0,1-.895,2.182,5.946,5.946,0,0,1-2.3,1.483,16.856,16.856,0,0,1-2.893.8,16.1,16.1,0,0,1-2.881.27A11.335,11.335,0,0,1,15.6,31.6a11.582,11.582,0,0,1-3.372-8.484A11.4,11.4,0,0,1,23.871,11.469a17.3,17.3,0,0,1,1.851.11,15.822,15.822,0,0,1,2.28.441,11.7,11.7,0,0,1,2.268.834,4.884,4.884,0,0,1,1.692,1.385,3.152,3.152,0,0,1,.687,1.986V18.9a.347.347,0,0,1-.392.392H29.364a.347.347,0,0,1-.392-.392V17.182q0-1.054-1.606-1.655a9.544,9.544,0,0,0-3.372-.6,7.45,7.45,0,0,0-5.6,2.244,8.025,8.025,0,0,0-2.17,5.824,8.637,8.637,0,0,0,2.244,6.118,7.47,7.47,0,0,0,5.726,2.415,10.39,10.39,0,0,0,3.384-.588q1.716-.588,1.716-1.618V27.6a.382.382,0,0,1,.11-.282.353.353,0,0,1,.257-.11h2.918a.4.4,0,0,1,.27.11.363.363,0,0,1,.123.282ZM23.6,7.546A15.254,15.254,0,0,0,17.508,8.8a15.476,15.476,0,0,0-8.349,8.349,15.47,15.47,0,0,0,0,12.187,15.476,15.476,0,0,0,8.349,8.349,15.47,15.47,0,0,0,12.187,0,15.476,15.476,0,0,0,8.349-8.349,15.47,15.47,0,0,0,0-12.187A15.476,15.476,0,0,0,29.7,8.8,15.254,15.254,0,0,0,23.6,7.546ZM42.434,23.239a18.422,18.422,0,0,1-2.526,9.453,18.747,18.747,0,0,1-6.854,6.854A18.422,18.422,0,0,1,23.6,42.071a18.422,18.422,0,0,1-9.453-2.526A18.747,18.747,0,0,1,7.3,32.692,18.422,18.422,0,0,1,4.77,23.239,18.422,18.422,0,0,1,7.3,13.786a18.747,18.747,0,0,1,6.854-6.854A18.422,18.422,0,0,1,23.6,4.407a18.422,18.422,0,0,1,9.453,2.526,18.747,18.747,0,0,1,6.854,6.854A18.422,18.422,0,0,1,42.434,23.239Z" transform="translate(1209.793 782.15)" fill="#fff"/>
    <circle id="Ellipse_8" data-name="Ellipse 8" cx="68" cy="68" r="68" transform="translate(1759 968)" fill="#2f655b"/>
    <circle id="Ellipse_9" data-name="Ellipse 9" cx="49.5" cy="49.5" r="49.5" transform="translate(1901 825)" fill="#2f655b"/>
    <circle id="Ellipse_10" data-name="Ellipse 10" cx="118.5" cy="118.5" r="118.5" transform="translate(1802 515)" fill="#2f655b"/>
    <circle id="Ellipse_11" data-name="Ellipse 11" cx="77.5" cy="77.5" r="77.5" transform="translate(1596 201)" fill="#2f655b"/>
    <circle id="Ellipse_12" data-name="Ellipse 12" cx="197" cy="197" r="197" transform="translate(910 -27)" fill="#2f655b"/>
    <circle id="Ellipse_13" data-name="Ellipse 13" cx="127.5" cy="127.5" r="127.5" transform="translate(-153 697)" fill="#2f655b"/>
    <circle id="Ellipse_14" data-name="Ellipse 14" cx="64" cy="64" r="64" transform="translate(194 760)" fill="#2f655b"/>
    <circle id="Ellipse_15" data-name="Ellipse 15" cx="87.5" cy="87.5" r="87.5" transform="translate(57 1015)" fill="#2f655b"/>
    <circle id="Ellipse_16" data-name="Ellipse 16" cx="56" cy="56" r="56" transform="translate(284 1015)" fill="#2f655b"/>
    <circle id="Ellipse_17" data-name="Ellipse 17" cx="86.5" cy="86.5" r="86.5" transform="translate(-56 244)" fill="#2f655b"/>
    <circle id="Ellipse_18" data-name="Ellipse 18" cx="43" cy="43" r="43" transform="translate(31 463)" fill="#2f655b"/>
    <circle id="Ellipse_19" data-name="Ellipse 19" cx="43" cy="43" r="43" transform="translate(633 270)" fill="#2f655b"/>
  </g>
</svg>
