<svg id="Layer_1" data-name="Layer 1" xmlns="http://www.w3.org/2000/svg" viewBox="0 0 38.97 38.25"><defs><style>.cls-1{fill:#091724;}.cls-2{fill:#102a42;}.cls-3{fill:none;stroke:#6f9654;stroke-miterlimit:10;stroke-width:1.15px;}.cls-4{fill:#dbf261;}.cls-5{fill:#bfd941;}.cls-6{fill:#8c6;}.cls-7{fill:#5ab348;}</style></defs><title>health-icon</title><ellipse class="cls-1" cx="19.37" cy="19.13" rx="18.3" ry="18.12"/><ellipse class="cls-2" cx="20.69" cy="19.69" rx="16.98" ry="17.57"/><circle class="cls-3" cx="19.12" cy="19.12" r="18.55"/><line class="cls-3" x1="20.36" y1="0.57" x2="34.2" y2="0.57"/><line class="cls-3" x1="36.44" y1="0.57" x2="38.46" y2="0.57"/><line class="cls-3" x1="32.63" y1="6.41" x2="38.46" y2="6.42"/><line class="cls-3" x1="29.98" y1="34.16" x2="35.58" y2="34.15"/><line class="cls-3" x1="37.45" y1="34.15" x2="38.97" y2="34.15"/><path class="cls-4" d="M22.67,27.35H14.53V20.85H8V12.71h6.51V6.09h8.14v6.62h6.51v8.14H22.67Z" transform="translate(-0.82 -0.88)"/><path class="cls-5" d="M18.6,6.09V27.35h4.07V20.85h6.51V12.71H22.67V6.09Z" transform="translate(-0.82 -0.88)"/><path class="cls-6" d="M26.74,17.66a11.65,11.65,0,0,0-1.59,6.57,13.2,13.2,0,0,0-5-2.73,13.13,13.13,0,0,0,2.77,5.05,16.28,16.28,0,0,0-3.75,1.56s2.67,1.8,4.66,1.59c-.65.48-1.24,2.59-1.24,2.59a8.38,8.38,0,0,0,3.37-1.41v3h1.63v-3a8.38,8.38,0,0,0,3.37,1.41s-.59-2.1-1.24-2.59c2,.21,4.66-1.59,4.66-1.59a16.28,16.28,0,0,0-3.75-1.56,13.13,13.13,0,0,0,2.77-5.05,13.2,13.2,0,0,0-5,2.73,11.65,11.65,0,0,0-1.59-6.57Z" transform="translate(-0.82 -0.88)"/><path class="cls-7" d="M27.55,33.92v-3a8.38,8.38,0,0,0,3.37,1.41s-.59-2.1-1.24-2.59c2,.21,4.66-1.59,4.66-1.59a16.28,16.28,0,0,0-3.75-1.56,13.13,13.13,0,0,0,2.77-5.05,13.2,13.2,0,0,0-5,2.73,11.65,11.65,0,0,0-1.59-6.57V33.92h.81Z" transform="translate(-0.82 -0.88)"/></svg>