<svg id="Layer_1" data-name="Layer 1" xmlns="http://www.w3.org/2000/svg" viewBox="0 0 40 40"><defs><style>.cls-1{fill:#091724;}.cls-2{fill:#102a42;}.cls-3{fill:none;stroke:#6f9654;stroke-miterlimit:10;stroke-width:1.15px;}.cls-4{fill:#ffe666;}.cls-5{fill:#ffc24d;}.cls-6{fill:#fff7e6;}.cls-7{fill:#6b5b73;}.cls-8{fill:#8c6;}.cls-9{fill:#5ab348;}.cls-10{fill:#ffeacc;}</style></defs><title>how-to-icon</title><ellipse class="cls-1" cx="20.19" cy="20.01" rx="18.3" ry="18.12"/><ellipse class="cls-2" cx="21.51" cy="20.56" rx="16.98" ry="17.57"/><circle class="cls-3" cx="19.94" cy="20" r="18.55"/><line class="cls-3" x1="21.18" y1="1.45" x2="35.03" y2="1.45"/><line class="cls-3" x1="37.26" y1="1.45" x2="39.28" y2="1.45"/><line class="cls-3" x1="33.45" y1="7.29" x2="39.28" y2="7.3"/><line class="cls-3" x1="30.8" y1="35.04" x2="36.4" y2="35.02"/><line class="cls-3" x1="38.27" y1="35.02" x2="39.79" y2="35.02"/><path class="cls-4" d="M21.42,29H9.27V9H15a1.43,1.43,0,0,1,1.43,1.43v5.28l2.14-1.07,2.14,1.07V10.4A1.43,1.43,0,0,1,22.14,9h5.72V20.41l-.2.21A5.29,5.29,0,0,0,26.43,24c0,.45,0,.72.13,2.7-1.08-.88-1.5-2-3.59-2.59.38,1.44.78,1.63,2,3.29l-1.12.22A4.12,4.12,0,0,0,22,28.75l-.21.23Z"/><path class="cls-5" d="M21.42,29h.32l.21-.23a4.12,4.12,0,0,1,1.93-1.15L25,27.38c-1.27-1.67-1.67-1.85-2-3.29,2.09.55,2.52,1.71,3.59,2.59-.11-2-.13-2.25-.13-2.7a5.29,5.29,0,0,1,1.23-3.37l.2-.21V9H22.14a1.43,1.43,0,0,0-1.43,1.43v5.28L18.56,14.6V29Z"/><g id="Pack"><path class="cls-6" d="M22.14,18,18.56,16.2,15,18V9h7.15Z"/><path class="cls-7" d="M12.13,21.83h5.72v1.43H12.13Z"/><path class="cls-7" d="M12.13,24.69h4.29v1.43H12.13Z"/></g><path class="cls-8" d="M27.07,19.09a10.23,10.23,0,0,0-1.4,5.77,11.59,11.59,0,0,0-4.41-2.4,11.54,11.54,0,0,0,2.43,4.44,14.3,14.3,0,0,0-3.3,1.37s2.35,1.58,4.09,1.4a6.2,6.2,0,0,0-1.09,2.27,7.36,7.36,0,0,0,3-1.24v2.67h1.43V30.7a7.36,7.36,0,0,0,3,1.24,6.2,6.2,0,0,0-1.09-2.27c1.75.18,4.09-1.4,4.09-1.4a14.3,14.3,0,0,0-3.3-1.37,11.54,11.54,0,0,0,2.43-4.44,11.59,11.59,0,0,0-4.41,2.4,10.23,10.23,0,0,0-1.4-5.77Z"/><path class="cls-9" d="M27.78,33.37V30.7a7.36,7.36,0,0,0,3,1.24,6.2,6.2,0,0,0-1.09-2.27c1.75.18,4.09-1.4,4.09-1.4a14.3,14.3,0,0,0-3.3-1.37,11.54,11.54,0,0,0,2.43-4.44,11.59,11.59,0,0,0-4.41,2.4,10.23,10.23,0,0,0-1.4-5.77V33.37h.71Z"/><path class="cls-10" d="M18.56,16.2,22.14,18V9H18.56Z"/></svg>