<svg id="Layer_1" data-name="Layer 1" xmlns="http://www.w3.org/2000/svg" viewBox="0 0 38.97 38.25"><defs><style>.cls-1{fill:#091724;}.cls-2{fill:#102a42;}.cls-3{fill:none;stroke:#6f9654;stroke-miterlimit:10;stroke-width:1.15px;}.cls-4{fill:#e6a373;}.cls-5{fill:#cc8552;}.cls-6{fill:#ffe666;}.cls-7{fill:#ffc24d;}.cls-8{fill:#ffa54d;}.cls-9{fill:#f73;}</style></defs><title>icon-feminized</title><ellipse class="cls-1" cx="19.37" cy="19.13" rx="18.3" ry="18.12"/><ellipse class="cls-2" cx="20.69" cy="19.69" rx="16.98" ry="17.57"/><circle class="cls-3" cx="19.12" cy="19.12" r="18.55"/><line class="cls-3" x1="20.36" y1="0.57" x2="34.2" y2="0.57"/><line class="cls-3" x1="36.44" y1="0.57" x2="38.46" y2="0.57"/><line class="cls-3" x1="32.63" y1="6.41" x2="38.46" y2="6.42"/><line class="cls-3" x1="29.98" y1="34.16" x2="35.58" y2="34.15"/><line class="cls-3" x1="37.45" y1="34.15" x2="38.97" y2="34.15"/><g id="Cannabis_seeds" data-name="Cannabis seeds"><path class="cls-4" d="M20.19,32.69c-1.93,0-3.57-1.62-4.68-3.25,1.1-1.62,2.75-3.25,4.68-3.25s3.57,1.62,4.68,3.25C23.77,31.06,22.12,32.69,20.19,32.69Z" transform="translate(-0.82 -0.88)"/><path class="cls-5" d="M26.68,28.09c-1.93,0-3.57-1.62-4.68-3.25,1.1-1.62,2.75-3.25,4.68-3.25s3.48,1.62,4.59,3.25C30.17,26.46,28.61,28.09,26.68,28.09Z" transform="translate(-0.82 -0.88)"/><path class="cls-4" d="M13.7,28.09c-1.93,0-3.48-1.62-4.59-3.25,1.1-1.62,2.66-3.25,4.59-3.25s3.57,1.62,4.68,3.25C17.28,26.46,15.63,28.09,13.7,28.09Z" transform="translate(-0.82 -0.88)"/></g><path class="cls-6" d="M13.35,12.42l-1.81.91.47.94,1.87-.93,2.63,1.32v3.57l-2.87,1.43.47.94L17,19.12l3.16,1.58,3.16-1.58,2.92,1.46.47-.94-2.87-1.43V14.65l2.63-1.32,1.87.93.47-.94L27,12.42v-3l1.81-.91-.47-.94-1.87.93L20.19,5.31,13.88,8.47,12,7.54l-.47.94,1.81.91Z" transform="translate(-0.82 -0.88)"/><path class="cls-7" d="M13.88,8.47,12,7.54l-.47.94,1.81.91v3l-1.81.91.47.94,1.87-.93,2.63,1.32v3.57l-2.87,1.43.47.94L17,19.12l3.16,1.58V5.31Z" transform="translate(-0.82 -0.88)"/><path class="cls-8" d="M20.72,6.75,26,9.38v3l-2.63,1.32-2.63-1.32Z" transform="translate(-0.82 -0.88)"/><path class="cls-8" d="M22.82,14.65v3.57l-2.63,1.32-2.63-1.32V14.65l2.63-1.32Z" transform="translate(-0.82 -0.88)"/><path class="cls-9" d="M17.56,14.65v3.57l2.63,1.32v-6.2Z" transform="translate(-0.82 -0.88)"/><path class="cls-9" d="M14.4,9.38l5.26-2.63v5.66L17,13.73,14.4,12.42Z" transform="translate(-0.82 -0.88)"/></svg>