<svg id="Layer_1" data-name="Layer 1" xmlns="http://www.w3.org/2000/svg" viewBox="0 0 38.97 38.25"><defs><style>.cls-1{fill:#091724;}.cls-2{fill:#102a42;}.cls-3{fill:none;stroke:#6f9654;stroke-miterlimit:10;stroke-width:1.15px;}.cls-4{fill:#8c6;}.cls-5{fill:#5ab348;}.cls-6{fill:#ffd93b;}.cls-7{fill:#f4c534;}.cls-8{fill:#ffd83b;}</style></defs><title>icon-indica</title><ellipse class="cls-1" cx="19.37" cy="19.13" rx="18.3" ry="18.12"/><ellipse class="cls-2" cx="20.69" cy="19.69" rx="16.98" ry="17.57"/><circle class="cls-3" cx="19.12" cy="19.12" r="18.55"/><line class="cls-3" x1="20.36" y1="0.57" x2="34.2" y2="0.57"/><line class="cls-3" x1="36.44" y1="0.57" x2="38.46" y2="0.57"/><line class="cls-3" x1="32.63" y1="6.41" x2="38.46" y2="6.42"/><line class="cls-3" x1="29.98" y1="34.16" x2="35.58" y2="34.15"/><line class="cls-3" x1="37.45" y1="34.15" x2="38.97" y2="34.15"/><path class="cls-4" d="M25.13,18a10.29,10.29,0,0,0-1.41,5.8,11.66,11.66,0,0,0-4.44-2.42,11.6,11.6,0,0,0,2.44,4.46,14.38,14.38,0,0,0-3.31,1.38s2.36,1.59,4.12,1.41a6.23,6.23,0,0,0-1.1,2.28,7.4,7.4,0,0,0,3-1.25v2.68h1.44V29.7a7.4,7.4,0,0,0,3,1.25,6.23,6.23,0,0,0-1.1-2.28c1.76.18,4.12-1.41,4.12-1.41a14.39,14.39,0,0,0-3.31-1.38A11.6,11.6,0,0,0,31,21.41a11.66,11.66,0,0,0-4.44,2.42A10.29,10.29,0,0,0,25.13,18Z" transform="translate(-0.82 -0.88)"/><path class="cls-5" d="M25.85,32.38V29.7a7.4,7.4,0,0,0,3,1.25,6.23,6.23,0,0,0-1.1-2.28c1.76.18,4.12-1.41,4.12-1.41a14.39,14.39,0,0,0-3.31-1.38A11.6,11.6,0,0,0,31,21.41a11.66,11.66,0,0,0-4.44,2.42A10.29,10.29,0,0,0,25.13,18V32.38h.72Z" transform="translate(-0.82 -0.88)"/><path class="cls-6" d="M12,18.26a7.18,7.18,0,0,0,5.5-11.79A8,8,0,1,1,7.4,16.57,7.15,7.15,0,0,0,12,18.26Z" transform="translate(-0.82 -0.88)"/><path class="cls-7" d="M20,7.81A8,8,0,0,1,8.75,19.08,8,8,0,1,0,20,7.81Z" transform="translate(-0.82 -0.88)"/><polygon class="cls-8" points="10.6 8.72 11.43 10.4 13.28 10.67 11.94 11.98 12.26 13.82 10.6 12.95 8.95 13.82 9.26 11.98 7.92 10.67 9.78 10.4 10.6 8.72"/><polygon class="cls-8" points="15.28 8.19 15.71 9.06 16.66 9.2 15.97 9.87 16.13 10.83 15.28 10.38 14.42 10.83 14.58 9.87 13.89 9.2 14.85 9.06 15.28 8.19"/></svg>