<svg id="Layer_1" data-name="Layer 1" xmlns="http://www.w3.org/2000/svg" viewBox="0 0 38.97 38.25"><defs><style>.cls-1{fill:#091724;}.cls-2{fill:#102a42;}.cls-3{fill:none;stroke:#6f9654;stroke-miterlimit:10;stroke-width:1.15px;}.cls-4{fill:#cc6e5c;}.cls-5{fill:#a65342;}.cls-6{fill:#cc8552;}.cls-7{fill:#e6a373;}.cls-8{fill:#8c6;}.cls-9{fill:#5ab348;}</style></defs><title>icon-outdoor</title><ellipse class="cls-1" cx="19.37" cy="19.13" rx="18.3" ry="18.12"/><ellipse class="cls-2" cx="20.69" cy="19.69" rx="16.98" ry="17.57"/><circle class="cls-3" cx="19.12" cy="19.12" r="18.55"/><line class="cls-3" x1="20.36" y1="0.57" x2="34.2" y2="0.57"/><line class="cls-3" x1="36.44" y1="0.57" x2="38.46" y2="0.57"/><line class="cls-3" x1="32.63" y1="6.41" x2="38.46" y2="6.42"/><line class="cls-3" x1="29.98" y1="34.16" x2="35.58" y2="34.15"/><line class="cls-3" x1="37.45" y1="34.15" x2="38.97" y2="34.15"/><path class="cls-4" d="M28.06,14.71v4.15a5.39,5.39,0,0,0-1.48,3.69c0,.43,0,.72.13,2.79l-1.48-1.49A5.15,5.15,0,0,0,23,22.65l.13.63H8.88V19.49l3.69-7.27H25.85Z" transform="translate(-0.82 -0.88)"/><path class="cls-5" d="M28.06,14.71l-2.21-2.49H18.47V23.28h4.66L23,22.65a5.15,5.15,0,0,1,2.24,1.2l1.48,1.49c-.11-2.07-.13-2.36-.13-2.79a5.39,5.39,0,0,1,1.48-3.69Z" transform="translate(-0.82 -0.88)"/><g id="Cannabis_Brownie" data-name="Cannabis Brownie"><path class="cls-6" d="M23.63,15.9h1.48v1.48H23.63Z" transform="translate(-0.82 -0.88)"/><path class="cls-6" d="M20.68,17.38h1.48v1.48H20.68Z" transform="translate(-0.82 -0.88)"/></g><path class="cls-7" d="M28.06,12.21v2.49a2.91,2.91,0,0,0-2.21-1h-5.9a1.48,1.48,0,0,0-1.48,1.48,1.48,1.48,0,1,1-3,0,1.48,1.48,0,0,0-3,0v1.48a3,3,0,0,1-3,3,2.48,2.48,0,0,1-.74-.1V12.21A2.21,2.21,0,0,1,11.09,10H25.85A2.21,2.21,0,0,1,28.06,12.21Z" transform="translate(-0.82 -0.88)"/><path class="cls-8" d="M27.24,17.44a10.56,10.56,0,0,0-1.44,6,12,12,0,0,0-4.56-2.48,11.91,11.91,0,0,0,2.51,4.58,14.76,14.76,0,0,0-3.4,1.42s2.42,1.63,4.22,1.45a6.4,6.4,0,0,0-1.13,2.34,7.6,7.6,0,0,0,3.06-1.28v2.75H28V29.43A7.6,7.6,0,0,0,31,30.71a6.4,6.4,0,0,0-1.13-2.34c1.8.19,4.22-1.45,4.22-1.45a14.76,14.76,0,0,0-3.4-1.42,11.91,11.91,0,0,0,2.51-4.58,12,12,0,0,0-4.56,2.48A10.56,10.56,0,0,0,27.24,17.44Z" transform="translate(-0.82 -0.88)"/><path class="cls-9" d="M28,32.18V29.43A7.6,7.6,0,0,0,31,30.71a6.4,6.4,0,0,0-1.13-2.34c1.8.19,4.22-1.45,4.22-1.45a14.76,14.76,0,0,0-3.4-1.42,11.91,11.91,0,0,0,2.51-4.58,12,12,0,0,0-4.56,2.48,10.56,10.56,0,0,0-1.44-6V32.18H28Z" transform="translate(-0.82 -0.88)"/><path class="cls-6" d="M19.94,13.69h5.9a2.91,2.91,0,0,1,2.21,1V12.21A2.21,2.21,0,0,0,25.85,10H18.47v5.16A1.48,1.48,0,0,1,19.94,13.69Z" transform="translate(-0.82 -0.88)"/></svg>