<svg id="Layer_1" data-name="Layer 1" xmlns="http://www.w3.org/2000/svg" viewBox="0 0 38.97 38.25"><defs><style>.cls-1{fill:#091724;}.cls-2{fill:#102a42;}.cls-3{fill:none;stroke:#6f9654;stroke-miterlimit:10;stroke-width:1.15px;}.cls-4{fill:#a3cc28;}.cls-5{fill:#dbf261;}.cls-6{fill:#bfd941;}.cls-7{fill:#6b5b73;}.cls-8{fill:#8c6;}.cls-9{fill:#5ab348;}.cls-10{fill:#503d59;}</style></defs><title>icon-indoor</title><ellipse class="cls-1" cx="19.37" cy="19.13" rx="18.3" ry="18.12"/><ellipse class="cls-2" cx="20.69" cy="19.69" rx="16.98" ry="17.57"/><circle class="cls-3" cx="19.12" cy="19.12" r="18.55"/><line class="cls-3" x1="20.36" y1="0.57" x2="34.2" y2="0.57"/><line class="cls-3" x1="36.44" y1="0.57" x2="38.46" y2="0.57"/><line class="cls-3" x1="32.63" y1="6.41" x2="38.46" y2="6.42"/><line class="cls-3" x1="29.98" y1="34.16" x2="35.58" y2="34.15"/><line class="cls-3" x1="37.45" y1="34.15" x2="38.97" y2="34.15"/><path class="cls-4" d="M27.42,15.32l-3.94-3.47V7.37h3.94Z" transform="translate(-0.82 -0.88)"/><path class="cls-5" d="M31.4,17,20.19,7.37,9,17l.87,1,1.81-1.55V29.14H28.73V16.46L30.54,18Z" transform="translate(-0.82 -0.88)"/><path class="cls-6" d="M28.73,29.14V16.46L30.54,18l.87-1L20.19,7.37V29.14Z" transform="translate(-0.82 -0.88)"/><path class="cls-7" d="M10.33,28.48H30V29.8H10.33Z" transform="translate(-0.82 -0.88)"/><path class="cls-8" d="M20.19,14.09a9.41,9.41,0,0,0-1.29,5.3,10.66,10.66,0,0,0-4.06-2.21,10.61,10.61,0,0,0,2.23,4.08,13.15,13.15,0,0,0-3,1.26s2.16,1.45,3.76,1.29a5.7,5.7,0,0,0-1,2.09,6.77,6.77,0,0,0,2.73-1.14v2.45h1.31V24.76a6.77,6.77,0,0,0,2.72,1.14,5.7,5.7,0,0,0-1-2.09c1.61.17,3.76-1.29,3.76-1.29a13.15,13.15,0,0,0-3-1.26,10.61,10.61,0,0,0,2.23-4.08,10.66,10.66,0,0,0-4.06,2.21,9.41,9.41,0,0,0-1.29-5.3Z" transform="translate(-0.82 -0.88)"/><path class="cls-9" d="M20.85,27.21V24.76a6.77,6.77,0,0,0,2.72,1.14,5.7,5.7,0,0,0-1-2.09c1.61.17,3.76-1.29,3.76-1.29a13.15,13.15,0,0,0-3-1.26,10.61,10.61,0,0,0,2.23-4.08,10.66,10.66,0,0,0-4.06,2.21,9.41,9.41,0,0,0-1.29-5.3V27.21Z" transform="translate(-0.82 -0.88)"/><path class="cls-10" d="M20.19,28.48H30V29.8H20.19Z" transform="translate(-0.82 -0.88)"/></svg>