<svg id="Layer_1" data-name="Layer 1" xmlns="http://www.w3.org/2000/svg" viewBox="0 0 38.97 38.25"><defs><style>.cls-1{fill:#091724;}.cls-2{fill:#102a42;}.cls-3{fill:none;stroke:#6f9654;stroke-miterlimit:10;stroke-width:1.15px;}.cls-4{fill:#e1e6f0;}.cls-5{fill:#8c6;}.cls-6{fill:#5ab348;}.cls-7{fill:#cfd7e6;}.cls-8{fill:#80d5ff;}.cls-9{fill:#73a1ff;}</style></defs><title>lifestyle-icon</title><ellipse class="cls-1" cx="19.37" cy="19.13" rx="18.3" ry="18.12"/><ellipse class="cls-2" cx="20.69" cy="19.69" rx="16.98" ry="17.57"/><circle class="cls-3" cx="19.12" cy="19.12" r="18.55"/><line class="cls-3" x1="20.36" y1="0.57" x2="34.2" y2="0.57"/><line class="cls-3" x1="36.44" y1="0.57" x2="38.46" y2="0.57"/><line class="cls-3" x1="32.63" y1="6.41" x2="38.46" y2="6.42"/><line class="cls-3" x1="29.98" y1="34.16" x2="35.58" y2="34.15"/><line class="cls-3" x1="37.45" y1="34.15" x2="38.97" y2="34.15"/><path class="cls-4" d="M31.66,18H30.13a9.95,9.95,0,0,0-19.89,0H8.7a11.48,11.48,0,0,1,23,0Z" transform="translate(-0.82 -0.88)"/><path class="cls-4" d="M30.13,25.63V28a3.07,3.07,0,0,1-3.06,3.06H22.48a1.53,1.53,0,0,0-1.53,1.53H19.41a3,3,0,0,1,.77-2,3,3,0,0,1,2.3-1.06h4.59A1.53,1.53,0,0,0,28.6,28V26.4Z" transform="translate(-0.82 -0.88)"/><path class="cls-5" d="M20.18,11.16a11,11,0,0,0-1.5,6.18A12.41,12.41,0,0,0,14,14.77a12.35,12.35,0,0,0,2.6,4.75A15.31,15.31,0,0,0,13,21s2.51,1.69,4.38,1.5a6.64,6.64,0,0,0-1.17,2.43,7.88,7.88,0,0,0,3.17-1.33v2.85h1.53V23.59a7.88,7.88,0,0,0,3.17,1.33,6.64,6.64,0,0,0-1.17-2.43c1.87.19,4.38-1.5,4.38-1.5a15.31,15.31,0,0,0-3.53-1.47,12.35,12.35,0,0,0,2.6-4.75,12.41,12.41,0,0,0-4.72,2.57,11,11,0,0,0-1.5-6.18Z" transform="translate(-0.82 -0.88)"/><path class="cls-6" d="M20.95,26.45V23.59a7.88,7.88,0,0,0,3.17,1.33,6.64,6.64,0,0,0-1.17-2.43c1.87.19,4.38-1.5,4.38-1.5a15.31,15.31,0,0,0-3.53-1.47,12.35,12.35,0,0,0,2.6-4.75,12.41,12.41,0,0,0-4.72,2.57,11,11,0,0,0-1.5-6.18V26.45Z" transform="translate(-0.82 -0.88)"/><path class="cls-7" d="M30.13,18h1.53A11.49,11.49,0,0,0,20.18,6.5V8A10,10,0,0,1,30.13,18Z" transform="translate(-0.82 -0.88)"/><g id="Cannabis"><path class="cls-8" d="M11.76,26.4H9.42a2.3,2.3,0,0,1-2.3-2.3V19.51a2.3,2.3,0,0,1,2.3-2.3h2.35Z" transform="translate(-0.82 -0.88)"/><path class="cls-9" d="M30.94,26.4H28.6V17.22h2.35a2.3,2.3,0,0,1,2.3,2.3V24.1A2.3,2.3,0,0,1,30.94,26.4Z" transform="translate(-0.82 -0.88)"/></g></svg>