<svg id="Layer_1" data-name="Layer 1" xmlns="http://www.w3.org/2000/svg" viewBox="0 0 80.83 79.91"><defs><style>.cls-1{fill:#5f8848;}.cls-1,.cls-3{fill-rule:evenodd;}.cls-2{fill:#fff;}.cls-3{fill:#3f7e72;}</style></defs><title>logo-wh</title><path class="cls-1" d="M31,67.21c-.2.13-.58.18-.51.47a.25.25,0,0,0,.21.19l1-1.06A7.55,7.55,0,0,0,31,67.21Z" transform="translate(-9.69 -10.51)"/><polygon class="cls-2" points="41.52 79.61 41.52 43.46 47 46.43 47 79.61 41.52 79.61"/><rect class="cls-2" x="46.54" y="62.79" width="13.54" height="5.02"/><polygon class="cls-2" points="60.08 53.73 65.26 57.31 65.26 79.91 59.78 79.91 59.78 53.73 60.08 53.73"/><polyline class="cls-2" points="9.56 52.44 9.56 58.68 41.52 40.82 71.65 58.68 71.65 52.44 42.13 33.42 9.18 52.52"/><polyline class="cls-2" points="60.14 45.87 60.14 38.56 64.9 41.3 64.9 48.36 60.14 46.17"/><path class="cls-2" d="M62.78,62.29h-.24a1.62,1.62,0,0,0-1.61,1.61v.93h3.47V63.9A1.62,1.62,0,0,0,62.78,62.29Z" transform="translate(-9.69 -10.51)"/><rect class="cls-2" x="51.23" y="54.95" width="1.32" height="2.02"/><rect class="cls-2" x="53.38" y="54.95" width="1.32" height="2.02"/><path class="cls-2" d="M37.18,62.34h-.24A1.62,1.62,0,0,0,35.33,64v.93h3.47V64A1.62,1.62,0,0,0,37.18,62.34Z" transform="translate(-9.69 -10.51)"/><rect class="cls-2" x="25.64" y="55" width="1.32" height="2.02"/><rect class="cls-2" x="27.78" y="55" width="1.32" height="2.02"/><polygon class="cls-2" points="34.37 46.43 33.98 74.05 30.1 74.05 30.1 58.68 24.86 58.68 24.7 73.98 21.13 74.2 21.28 53.66 15.72 56.93 15.72 79.61 39.62 79.61 39.77 43.46 34.37 46.43"/><path class="cls-3" d="M41.5,33.85h0a.24.24,0,0,0-.11.09Z" transform="translate(-9.69 -10.51)"/><path class="cls-3" d="M57.2,27.13c-.46.22-.93.42-1.41.62-.16.07-.34.22-.5.1s.06-.26.15-.38c.27-.37.56-.73.85-1.09A2.41,2.41,0,0,0,56.8,24l-.06-.1c-4.07,3.3-8.44,6.84-13,10.5l-1.81,1.45.29.58c.09.18.31.39.08.56a.84.84,0,0,1-.88.19c-.43-.2-.46,0-.48.27a13.82,13.82,0,0,0,1.35,2.24c.51.34.74.85,1.18,1.23.09.08.2.19.08.29s-.25,0-.37,0l-1.43-.79c-.13-.07-.28-.19-.44-.1s-.09.24,0,.37c.14.43.29.86.43,1.29s.41.6.64.89l4.93-4c3.13-2.51,6.19-5,9.13-7.29a11.94,11.94,0,0,0,1.73-3.05,6.79,6.79,0,0,0-.06-1C58,27.08,57.73,26.87,57.2,27.13Z" transform="translate(-9.69 -10.51)"/><path class="cls-3" d="M40,43.53a3.16,3.16,0,0,0-.08-1.59h-.16c-.31.28-.27.69-.57,1a1,1,0,0,1-.32-1,2.67,2.67,0,0,0-1-1.9c-.29.18-.08.39-.19.55a3.41,3.41,0,0,1-.4,1.39A8.22,8.22,0,0,1,37,39.71L28.75,46.3l1.72.91a2.27,2.27,0,0,1-1.09.13c-.45,0-.47.12-.22.39a6.9,6.9,0,0,0,1.62,1.14c.16.1.43.15.41.34s-.3.22-.49.25c-.54.11-.44.28-.12.51a7.82,7.82,0,0,0,1.78.91l7.73-6.27A2,2,0,0,1,40,43.53Z" transform="translate(-9.69 -10.51)"/><path class="cls-3" d="M26.45,46l-.08,0L26,45.82c-.45-.16-.67-.06-.76.34s-.06.6-.15.94Z" transform="translate(-9.69 -10.51)"/><path class="cls-3" d="M54.28,20.45c-.34.1-.47,0-.48-.27-.05-1-.33-2-.48-2.93l-.14-.54-8,6.52a3,3,0,0,0,.25.53c.07.12.13.26,0,.36s-.26,0-.39-.05l-.61-.22-1,.82c0,.14,0,.27,0,.41a7.63,7.63,0,0,0,1.58,2.41c.08.1.29.21.14.33s-.34,0-.5-.07l-1.4-.64c-.6-.27-.86-.17-.93.37a8.32,8.32,0,0,0,0,1,12.75,12.75,0,0,0,1.06,2.23,4.16,4.16,0,0,1,.82,1.08c3.9-3.12,7.67-6.13,11.22-8.94a8,8,0,0,0,.17-1.08,6.17,6.17,0,0,0-.06-.72C55.3,20.36,55,20.24,54.28,20.45Z" transform="translate(-9.69 -10.51)"/><path class="cls-3" d="M42.35,32.94l.1.13L43.77,32a9.76,9.76,0,0,1-1.54-1.33L42,30.58l-.14.11h0A5,5,0,0,0,42.35,32.94Z" transform="translate(-9.69 -10.51)"/><path class="cls-3" d="M35.42,38.16c-.21.32-.46.63-.76,1A2.52,2.52,0,0,1,34.55,38a2.37,2.37,0,0,0-.62-1.58c-.29-.31-.61-.47-.95,0-.11.15-.2.41-.47.36s-.19-.31-.24-.48a3.47,3.47,0,0,0-1.2-1.8L25.5,39c.15.15.32.28.49.41a1.31,1.31,0,0,1,.51.35c-.13.21-.37.17-.56.21-.74.15-.82.29-.42.84A4.33,4.33,0,0,0,27.41,42c.21.09.51.09.62.37a7.43,7.43,0,0,1-1.65.08c-.35.14-.26.35-.15.56A4,4,0,0,0,28,44.49l.17.08,8-6.48C35.93,37.81,35.68,37.75,35.42,38.16Z" transform="translate(-9.69 -10.51)"/><path class="cls-3" d="M23.41,45.37c-.87-.31-.93-.29-1.21.48,0,.13,0,.35-.21.37s-.27-.18-.39-.29l-.87-.85c-.27-.11-.54-.22-.81-.31-.46-.15-.74-.17-1,.33s-.66,0-1-.07l-.13,0-4.15,3.26.24.19,1.37.94c.29.2.11.32-.11.42-.43.2-.36.41-.08.67a4.14,4.14,0,0,0,2.24.92c.13,0,.31,0,.37.11s-.14.21-.25.29l-.27.18c-.53.35-.52.53,0,.85l.39.22.16,0,7-5.72A4.3,4.3,0,0,0,23.41,45.37Z" transform="translate(-9.69 -10.51)"/><path class="cls-3" d="M52.73,15l-.87-2.25-.21-.5L50.4,10.51h-.46l-1,1.36a2.4,2.4,0,0,1-.44.86L47.63,15l-.08.34-.06.11L47,17.22c-.15.88-.3,1.75-.45,2.63Z" transform="translate(-9.69 -10.51)"/><path class="cls-3" d="M45.92,20.37c-.62-.2-.79-.11-1,.46a3.31,3.31,0,0,0-.08.36Z" transform="translate(-9.69 -10.51)"/><path class="cls-3" d="M24.9,37.17a.5.5,0,0,0-.46.21,1.2,1.2,0,0,0,0,.18l.49-.4Z" transform="translate(-9.69 -10.51)"/><path class="cls-3" d="M22.55,30.64l.65,2.26c.66,1.3,1.2,2.63,2,3.89a.55.55,0,0,1,.07.16l3.82-3.09a6.42,6.42,0,0,1-1-.94l-1.69-1.42a4.49,4.49,0,0,1-1.1-.83l-1.66-1c-1.13-.41-1.14-.41-1.11.6C22.53,30.41,22.54,30.53,22.55,30.64Z" transform="translate(-9.69 -10.51)"/><path class="cls-3" d="M9.82,44.1a12.07,12.07,0,0,0,1.67,2.24c.34.32.74.59,1,.93L16,44.43l-.69-.21-.15,0-2.81-.59a8.47,8.47,0,0,0-2.66.06l0,.23A.2.2,0,0,1,9.82,44.1Z" transform="translate(-9.69 -10.51)"/><path class="cls-3" d="M18.93,54.64a3.36,3.36,0,0,0,1.68.49c.85,0,1.71,0,2.56,0l0,.22-2.31.51c1.08.82,2.35.7,3.62.76a2.19,2.19,0,0,1-.91.53c-.21.11-.5.16-.39.44l.12,0,1.8-.84L31,52a.9.9,0,0,1-.06-.19,1.49,1.49,0,0,0-.71-.93,1.28,1.28,0,0,1-.68-.45c-.25-.24-.59-.57-.31-.84s.07-.42-.16-.59c-.58-.43-1.33-.92-1.25-1.53a.85.85,0,0,0,0-.43c-2.78,2.2-5.41,4.26-7.84,6.16l.33,0-1.12.59-.52.41C18.59,54.36,18.7,54.5,18.93,54.64Z" transform="translate(-9.69 -10.51)"/><path class="cls-3" d="M41.44,49.24a2.86,2.86,0,0,1-.3-.55,2.43,2.43,0,0,1-.5-1.7c0-.29.17-.46.57-.39.06-.18,0-.31-.16-.44l-8,6.34c.21.12.44.24.66.34Z" transform="translate(-9.69 -10.51)"/><path class="cls-3" d="M43.18,46.86c.3.18.58.38.54.72s-.18.42-.55.32h-.28c-.3,0-.58-.38-.8-.2s.11.5.21.75l.09.21.1.1,9.35-4.35,1.56-1.26,5-4a8,8,0,0,0,1-1.67c0-.21,0-.52-.45-.27s-.61,0-.86-.17-.07-.33,0-.49c.23-.44.46-.88.69-1.32.06-.33.13-.66.18-1s-.09-.46-.5-.26a12,12,0,0,1-1.44.61A5.42,5.42,0,0,1,58,33c.07-.21.14-.41.22-.62-3,2.46-6.22,5-9.5,7.66l-5.19,4.15c.36.37.74.74,1.13,1.11a2.33,2.33,0,0,1-1.25-.42l-.46-.23-1,.81c.26.34.55.67.81,1C42.94,46.53,43.13,46.65,43.18,46.86Z" transform="translate(-9.69 -10.51)"/><path class="cls-3" d="M56.91,47a.88.88,0,0,1,.24-.12.8.8,0,0,1,.42-.42,11.64,11.64,0,0,0,1.56-2.23l0-.23L59,43.87a11.1,11.1,0,0,0-2.27,1.06,2.58,2.58,0,0,1-1.13.41,23.18,23.18,0,0,0,3-3.38c.08-.33.24-.64.35-1l-4.12,3.31-1.21,1Z" transform="translate(-9.69 -10.51)"/><path class="cls-3" d="M76.85,29.77l-1.79,1a4.63,4.63,0,0,1-1,.76L72.25,33a4,4,0,0,1-1,.92l-.54.58c-.23.26-.42.55-.76.05-.21-.32-.48-.09-.68.05A3.57,3.57,0,0,0,68,36.53c0,.14,0,.34-.22.37s-.28-.17-.39-.28c-.49-.51-.71-.5-1.13.06a2.61,2.61,0,0,0-.53,1.66,1.72,1.72,0,0,1-.17.89c-.22-.32-.43-.64-.66-.95-.34-.47-.53-.47-.94,0a4.68,4.68,0,0,0-.73,1.45L63.06,42a1.11,1.11,0,0,1-.38-1c-.33-.26,0-.66-.35-1a3.37,3.37,0,0,0-1,1.88,2.18,2.18,0,0,1-.17,1.14c-.41-.3-.37-.76-.82-1a1.52,1.52,0,0,0-.14,1.08,3.69,3.69,0,0,1-1.3,3.31c.75.21.79.67.64,1.2a4.37,4.37,0,0,1-.19.6l8,4.14a4.87,4.87,0,0,0,.52-.41v-.35c-.54,0-1.06,0-1.59-.08l1.59-.62V47.58l2.17,1a4.46,4.46,0,0,0,.92-.7c.11-.12.33-.22.23-.37s-.34-.07-.52-.08a2.69,2.69,0,0,1-1-.12l1.88-.94c.26-.23.54-.46.79-.7s.29-.24.15-.39-.3,0-.45,0a5.9,5.9,0,0,1-1.75.24l2.8-1.43.81-.71c0-.27.41-.54,0-.82H72.18a.92.92,0,0,1,.67-.46A4.87,4.87,0,0,0,74.61,41c.62-.59.52-.84-.4-1-.15,0-.38,0-.42-.14s.17-.24.33-.3a4.07,4.07,0,0,0,1.75-2.1s0-.08-.08-.09c-1.05-.13-.6-.59-.37-1,.59-1.13,1.16-2.26,1.74-3.39l.65-2.23c0-.15,0-.3,0-.45C77.87,29.45,77.86,29.45,76.85,29.77Z" transform="translate(-9.69 -10.51)"/><path class="cls-3" d="M89.87,43.69l-1.87,0-2.79.59a.33.33,0,0,1-.29.08l-2.53.77a1.75,1.75,0,0,1-.66.29c-.22.07-.43.08-.45-.18,0-.63-.53-.48-1-.35-.24.07-.46.17-.69.26a10.41,10.41,0,0,0-1.08,1c-.17.24-.34.23-.44-.05L78,46c-.29-.82-.29-.82-1.24-.47a4.83,4.83,0,0,0-1.39,2.2,2.6,2.6,0,0,1-.33-1.17c-.13-.77-.13-.77-1.07-.56l-1,.52c-.28.3-.9.47-.55,1,.08.12-.14.38-.27.55a4.61,4.61,0,0,1-1.09,1l5.37,2.48v5.12h.66a4.26,4.26,0,0,0,1.66-.38c.13-.06.3-.14.27-.29s-.22-.1-.34-.14A16.83,16.83,0,0,1,77,55.45v-.18c.84,0,1.68,0,2.53,0a3.5,3.5,0,0,0,1.7-.45c.44-.25.49-.5,0-.78a4.36,4.36,0,0,1-1.28-.77c.87,0,1.65.08,2.43,0l.3-.06.43-.28c.39-.26.44-.52,0-.76a1.18,1.18,0,0,1-.21-.15c-.12-.1-.37-.15-.3-.33s.28-.11.43-.13a4.08,4.08,0,0,0,2-.81c.34-.29.61-.54,0-.81-.32-.13-.18-.29,0-.43l1.27-.87L88,47.28a3.35,3.35,0,0,1,.81-.76,12.14,12.14,0,0,0,1.62-2.12l.09-.14h0C90.63,43.81,90.35,43.68,89.87,43.69Z" transform="translate(-9.69 -10.51)"/><path class="cls-3" d="M32.77,53.48a2.4,2.4,0,0,0-.31-.18l-.23-.16-2,1.6Z" transform="translate(-9.69 -10.51)"/></svg>