<svg id="Layer_1" data-name="Layer 1" xmlns="http://www.w3.org/2000/svg" viewBox="0 0 93.71 69.74"><defs><style>.cls-1{fill:#5f8848;fill-rule:evenodd;}.cls-2{fill:#fff;}</style></defs><title>nav-logo</title><path class="cls-1" d="M31,67.21c-.2.13-.58.18-.51.47a.25.25,0,0,0,.21.19l1-1.06A7.55,7.55,0,0,0,31,67.21Z" transform="translate(-3.14 -15.13)"/><polygon class="cls-2" points="48.51 69.28 48.51 15.07 56.73 19.52 56.73 69.28 48.51 69.28"/><rect class="cls-2" x="56.04" y="44.06" width="20.32" height="7.53"/><polygon class="cls-2" points="76.36 30.48 84.12 35.84 84.12 69.74 75.91 69.74 75.91 30.48 76.36 30.48"/><polyline class="cls-2" points="0.57 28.54 0.57 37.9 48.51 11.11 93.71 37.9 93.71 28.54 49.42 0 0 28.65"/><polyline class="cls-2" points="76.45 18.68 76.45 7.72 83.58 11.83 83.58 22.41 76.45 19.13"/><path class="cls-2" d="M69,42.68h-.36a2.43,2.43,0,0,0-2.42,2.42v1.39h5.2V45.1A2.43,2.43,0,0,0,69,42.68Z" transform="translate(-3.14 -15.13)"/><rect class="cls-2" x="63.08" y="32.29" width="1.98" height="3.03"/><rect class="cls-2" x="66.3" y="32.29" width="1.98" height="3.03"/><path class="cls-2" d="M30.61,42.75h-.36a2.43,2.43,0,0,0-2.42,2.42v1.39H33V45.17A2.43,2.43,0,0,0,30.61,42.75Z" transform="translate(-3.14 -15.13)"/><rect class="cls-2" x="24.69" y="32.37" width="1.98" height="3.03"/><rect class="cls-2" x="27.91" y="32.37" width="1.98" height="3.03"/><polygon class="cls-2" points="37.78 19.52 37.21 60.95 31.39 60.95 31.39 37.9 23.52 37.9 23.29 60.84 17.92 61.18 18.15 30.36 9.82 35.27 9.82 69.28 45.66 69.28 45.89 15.07 37.78 19.52"/></svg>