<svg xmlns="http://www.w3.org/2000/svg" viewBox="0 0 1439.38 100"><defs><style>.cls-1{fill:#6f9654;}.cls-2{fill:none;}.cls-3{fill:#fff;}</style></defs><title>vector</title><g id="Ebene_2" data-name="Ebene 2"><rect class="cls-1" width="1439.38" height="100"/></g><g id="Ebene_1" data-name="Ebene 1"><path class="cls-2" d="M0,0H1439.14V100H0Z" transform="translate(0.24 0)"/><path class="cls-3" d="M1370.76,34c23.71-21.13,53-18.59,68.38,0V100L0,97.66V38.52C35.85-.82,74.66-8.27,124.35,19.5,173.77-1.86,205.64,4.74,241,34.09c25.34-5.67,35.62-3.15,48.44,9.38,35.53-25,74.06-19.37,117.9,14.85,31.28-12.39,46.55-11.72,70.08,1.56C503.86,31.48,545,32.59,587,56.76c14.43-7.34,24.62-7.32,46.08-.79,41.76-26.78,76.31-26.08,113.75,0,30.57-23.6,62.83-22.89,100.27,0C865.53,44,879.49,44.74,893.8,56c31.56-17.5,58.84-16.32,87.12,1.86,18.83-13.63,31.77-14,57.86-5.57,12.49-27.58,41.24-28.85,80.57-10.85,32.19-34.76,73.27-38.16,120.39-19.34C1286.41-11.54,1336.89-6.12,1370.76,34Z" transform="translate(0.24 0)"/></g></svg>