<svg id="Layer_1" data-name="Layer 1" xmlns="http://www.w3.org/2000/svg" viewBox="0 0 80.83 91.55"><defs><style>.cls-1{fill:#5f8848;}.cls-1,.cls-3{fill-rule:evenodd;}.cls-2{fill:#fff;}.cls-3{fill:#3f7e72;}</style></defs><title>wh-logo</title><path class="cls-1" d="M31,67.21c-.2.13-.58.18-.51.47a.25.25,0,0,0,.21.19l1-1.06A7.55,7.55,0,0,0,31,67.21Z" transform="translate(-9.59 -4.23)"/><polygon class="cls-2" points="41.52 91.24 41.52 55.1 47 58.07 47 91.24 41.52 91.24"/><rect class="cls-2" x="46.54" y="74.43" width="13.54" height="5.02"/><polygon class="cls-2" points="60.08 65.37 65.26 68.95 65.26 91.55 59.78 91.55 59.78 65.37 60.08 65.37"/><polyline class="cls-2" points="9.56 64.08 9.56 70.32 41.52 52.46 71.65 70.32 71.65 64.08 42.13 45.05 9.18 64.15"/><polyline class="cls-2" points="60.14 57.51 60.14 50.2 64.9 52.94 64.9 60 60.14 57.81"/><path class="cls-2" d="M62.67,67.65h-.24a1.62,1.62,0,0,0-1.61,1.61v.93h3.47v-.93A1.62,1.62,0,0,0,62.67,67.65Z" transform="translate(-9.59 -4.23)"/><rect class="cls-2" x="51.23" y="66.58" width="1.32" height="2.02"/><rect class="cls-2" x="53.38" y="66.58" width="1.32" height="2.02"/><path class="cls-2" d="M37.08,67.7h-.24a1.62,1.62,0,0,0-1.61,1.61v.93h3.47v-.93A1.62,1.62,0,0,0,37.08,67.7Z" transform="translate(-9.59 -4.23)"/><rect class="cls-2" x="25.64" y="66.63" width="1.32" height="2.02"/><rect class="cls-2" x="27.78" y="66.63" width="1.32" height="2.02"/><polygon class="cls-2" points="34.37 58.07 33.98 85.69 30.1 85.69 30.1 70.32 24.86 70.32 24.7 85.61 21.13 85.84 21.28 65.3 15.72 68.57 15.72 91.24 39.62 91.24 39.77 55.1 34.37 58.07"/><path class="cls-3" d="M41.4,33.33h0a.26.26,0,0,0-.11.11Z" transform="translate(-9.59 -4.23)"/><path class="cls-3" d="M57.09,25c-.46.28-.93.53-1.41.77-.16.08-.34.28-.5.12s.06-.33.15-.47c.27-.46.56-.91.85-1.36a3.57,3.57,0,0,0,.52-3l-.06-.13C52.56,25,48.19,29.42,43.62,34L41.81,35.8l.29.73c.09.23.31.49.08.7s-.53.43-.88.23-.46,0-.48.34a18.49,18.49,0,0,0,1.35,2.79,14.1,14.1,0,0,1,1.18,1.53c.09.1.2.23.08.37s-.25,0-.37-.06l-1.43-1c-.13-.09-.28-.23-.44-.12s-.09.3,0,.46c.14.54.29,1.07.43,1.61.2.38.41.75.64,1.11l4.93-4.95c3.13-3.13,6.19-6.18,9.13-9.09A16.18,16.18,0,0,0,58,26.64,10.54,10.54,0,0,0,58,25.39C57.89,24.89,57.63,24.63,57.09,25Z" transform="translate(-9.59 -4.23)"/><path class="cls-3" d="M39.9,45.4a4.88,4.88,0,0,0-.08-2h-.16c-.31.35-.27.86-.57,1.19a1.5,1.5,0,0,1-.32-1.23,3.68,3.68,0,0,0-1-2.37c-.29.22-.08.49-.19.69a5.07,5.07,0,0,1-.4,1.74,12.67,12.67,0,0,1-.27-2.79c-2.87,2.86-5.65,5.6-8.29,8.21L30.38,50a1.85,1.85,0,0,1-1.09.16c-.45,0-.47.15-.22.49a7.14,7.14,0,0,0,1.62,1.42c.16.12.43.19.41.43s-.3.27-.49.32c-.54.14-.44.35-.12.64a7.38,7.38,0,0,0,1.78,1.13c2.46-2.5,5-5.11,7.73-7.82A3.11,3.11,0,0,1,39.9,45.4Z" transform="translate(-9.59 -4.23)"/><path class="cls-3" d="M26.34,48.45l-.08-.06c-.13,0-.27-.08-.39-.14-.45-.2-.67-.08-.76.43s-.06.75-.15,1.17Z" transform="translate(-9.59 -4.23)"/><path class="cls-3" d="M54.18,16.62c-.34.12-.47,0-.48-.34-.05-1.23-.33-2.43-.48-3.65L53.07,12c-2.54,2.58-5.22,5.3-8,8.12a4.25,4.25,0,0,0,.25.66c.07.15.13.33,0,.45s-.26,0-.39-.06l-.61-.27-1,1c0,.17,0,.34,0,.51a10,10,0,0,0,1.58,3c.08.12.29.26.14.41s-.34,0-.5-.09l-1.4-.79c-.6-.33-.86-.21-.93.47,0,.39,0,.79,0,1.19a17.89,17.89,0,0,0,1.06,2.78A5.24,5.24,0,0,1,44,30.73c3.9-3.9,7.67-7.64,11.22-11.15a12.32,12.32,0,0,0,.17-1.35c0-.3,0-.61-.06-.9C55.2,16.52,54.93,16.36,54.18,16.62Z" transform="translate(-9.59 -4.23)"/><path class="cls-3" d="M42.25,32.2l.1.17,1.32-1.32a10.78,10.78,0,0,1-1.54-1.66l-.27-.14-.14.14h0A7.53,7.53,0,0,0,42.25,32.2Z" transform="translate(-9.59 -4.23)"/><path class="cls-3" d="M35.32,38.7c-.21.4-.46.78-.76,1.29a3.88,3.88,0,0,1-.11-1.43,3.39,3.39,0,0,0-.62-2c-.29-.39-.61-.59-.95,0-.11.19-.2.51-.47.45s-.19-.39-.24-.6A4.51,4.51,0,0,0,31,34.2L25.4,39.72c.15.18.32.34.49.52a1.35,1.35,0,0,1,.51.44c-.13.26-.37.21-.56.26-.74.19-.82.36-.42,1a4.37,4.37,0,0,0,1.88,1.51c.21.11.51.11.62.46a6,6,0,0,1-1.65.11c-.35.17-.26.43-.15.7a4.29,4.29,0,0,0,1.82,1.86l.17.1c2.55-2.58,5.23-5.29,8-8.08C35.83,38.27,35.58,38.2,35.32,38.7Z" transform="translate(-9.59 -4.23)"/><path class="cls-3" d="M23.3,47.7c-.87-.39-.93-.36-1.21.6,0,.16,0,.43-.21.46s-.27-.22-.39-.36l-.87-1.06c-.27-.13-.54-.27-.81-.39-.46-.19-.74-.22-1,.42s-.66,0-1-.08l-.13,0L13.58,51.3l.24.24,1.37,1.17c.29.25.11.4-.11.52-.43.25-.36.51-.08.84a3.76,3.76,0,0,0,2.24,1.15c.13,0,.31,0,.37.14s-.14.26-.25.36l-.27.22c-.53.44-.52.66,0,1.06l.39.28.16,0c2.15-2.21,4.49-4.6,7-7.14A5.57,5.57,0,0,0,23.3,47.7Z" transform="translate(-9.59 -4.23)"/><path class="cls-3" d="M52.62,9.81,51.75,7l-.21-.62L50.3,4.23h-.46l-1,1.69A3.32,3.32,0,0,1,48.37,7l-.85,2.8-.08.43-.06.14-.46,2.22c-.15,1.09-.3,2.19-.45,3.28Z" transform="translate(-9.59 -4.23)"/><path class="cls-3" d="M45.81,16.53c-.62-.25-.79-.13-1,.57,0,.15-.06.3-.08.45Z" transform="translate(-9.59 -4.23)"/><path class="cls-3" d="M24.8,37.48a.47.47,0,0,0-.46.27,1.85,1.85,0,0,0,0,.23l.49-.5Z" transform="translate(-9.59 -4.23)"/><path class="cls-3" d="M22.45,29.32l.65,2.81c.66,1.62,1.2,3.28,2,4.84a.78.78,0,0,1,.07.2L29,33.33a7.32,7.32,0,0,1-1-1.18l-1.69-1.78a4.73,4.73,0,0,1-1.1-1l-1.66-1.19c-1.13-.52-1.14-.51-1.11.75C22.43,29,22.44,29.19,22.45,29.32Z" transform="translate(-9.59 -4.23)"/><path class="cls-3" d="M9.71,46.11a15.3,15.3,0,0,0,1.67,2.8c.34.39.74.74,1,1.16l3.46-3.54-.69-.27-.15-.06-2.81-.74a6.82,6.82,0,0,0-2.66.08l0,.29A.28.28,0,0,1,9.71,46.11Z" transform="translate(-9.59 -4.23)"/><path class="cls-3" d="M18.82,59.25a2.9,2.9,0,0,0,1.68.61c.85,0,1.71,0,2.56,0l0,.28-2.31.63c1.08,1,2.35.87,3.62.94-.27.42-.63.48-.91.66s-.5.2-.39.55l.12.06L25,62l5.86-6a1.32,1.32,0,0,1-.06-.24,1.86,1.86,0,0,0-.71-1.17,1.32,1.32,0,0,1-.68-.57c-.25-.3-.59-.71-.31-1s.07-.52-.16-.74c-.58-.54-1.33-1.14-1.25-1.91a1.3,1.3,0,0,0,0-.54c-2.78,2.74-5.41,5.31-7.84,7.68l.33,0c-.37.24-.75.5-1.12.73l-.52.51C18.49,58.91,18.6,59.07,18.82,59.25Z" transform="translate(-9.59 -4.23)"/><path class="cls-3" d="M41.34,52.52a3.91,3.91,0,0,1-.3-.69,3.58,3.58,0,0,1-.5-2.12c0-.36.17-.57.57-.49a.63.63,0,0,0-.16-.55c-2.77,2.75-5.44,5.4-8,7.9.21.15.44.29.66.42Z" transform="translate(-9.59 -4.23)"/><path class="cls-3" d="M43.07,49.55a1,1,0,0,1,.54.89c0,.3-.18.52-.55.4h-.28c-.3,0-.58-.47-.8-.24s.11.62.21.94l.09.26.1.13,9.35-5.42,1.56-1.57,5-5a10.73,10.73,0,0,0,1-2.08c0-.26,0-.65-.45-.33s-.61-.06-.86-.21-.07-.41,0-.61c.23-.55.46-1.1.69-1.65.06-.41.13-.82.18-1.23s-.09-.57-.5-.33a10.91,10.91,0,0,1-1.44.76,7.2,7.2,0,0,1,1-2c.07-.26.14-.51.22-.77-3,3.07-6.22,6.26-9.5,9.55l-5.19,5.17c.36.46.74.92,1.13,1.39A2.06,2.06,0,0,1,43.3,47l-.46-.29-1,1c.26.42.55.84.81,1.26A.93.93,0,0,1,43.07,49.55Z" transform="translate(-9.59 -4.23)"/><path class="cls-3" d="M56.8,49.7a.83.83,0,0,1,.24-.15.92.92,0,0,1,.42-.52A15,15,0,0,0,59,46.24L59,46l-.12-.14a10.28,10.28,0,0,0-2.27,1.32,2.3,2.3,0,0,1-1.13.52,28,28,0,0,0,3-4.22c.08-.41.24-.8.35-1.2l-4.12,4.13-1.21,1.21Z" transform="translate(-9.59 -4.23)"/><path class="cls-3" d="M76.74,28.25,75,29.51a4.87,4.87,0,0,1-1,1L72.14,32.3a4.51,4.51,0,0,1-1,1.14c-.18.24-.36.48-.54.72s-.42.68-.76.06c-.21-.39-.48-.11-.68.07a4.66,4.66,0,0,0-1.25,2.37c0,.17,0,.43-.22.47s-.28-.21-.39-.35c-.49-.64-.71-.63-1.13.08a3.83,3.83,0,0,0-.53,2.07A2.61,2.61,0,0,1,65.48,40c-.22-.39-.43-.79-.66-1.18-.34-.58-.53-.58-.94,0a6.49,6.49,0,0,0-.73,1.8L63,43.52a1.58,1.58,0,0,1-.38-1.2c-.33-.33,0-.82-.35-1.22a4.65,4.65,0,0,0-1,2.35,3.34,3.34,0,0,1-.17,1.42c-.41-.38-.37-1-.82-1.3a2.32,2.32,0,0,0-.14,1.35A5.24,5.24,0,0,1,58.83,49c.75.27.79.83.64,1.5a6.44,6.44,0,0,1-.19.75l8,5.16a5.21,5.21,0,0,0,.52-.51v-.44a13.08,13.08,0,0,1-1.59-.1l1.59-.77V50.46L70,51.71a4.73,4.73,0,0,0,.92-.88c.11-.14.33-.27.23-.46s-.34-.09-.52-.1a2.19,2.19,0,0,1-1-.15l1.88-1.18c.26-.29.54-.57.79-.88.11-.13.29-.3.15-.48s-.3,0-.45,0a4.83,4.83,0,0,1-1.75.3L73,46.11l.81-.89c0-.34.41-.67,0-1H72.07a.94.94,0,0,1,.67-.57,4.81,4.81,0,0,0,1.77-1.33c.62-.74.52-1-.4-1.22-.15,0-.38,0-.42-.17s.17-.3.33-.38a5,5,0,0,0,1.75-2.62s0-.11-.08-.11c-1.05-.16-.6-.74-.37-1.28.59-1.41,1.16-2.82,1.74-4.23l.65-2.79c0-.19,0-.37,0-.56C77.77,27.85,77.76,27.84,76.74,28.25Z" transform="translate(-9.59 -4.23)"/><path class="cls-3" d="M89.76,45.6l-1.87,0-2.79.73a.29.29,0,0,1-.29.1l-2.53,1a1.61,1.61,0,0,1-.66.37c-.22.09-.43.1-.45-.22,0-.79-.53-.6-1-.43-.24.09-.46.21-.69.32a11.81,11.81,0,0,0-1.08,1.26c-.17.3-.34.28-.44-.07,0-.07,0-.14,0-.2-.29-1-.29-1-1.24-.58a6.36,6.36,0,0,0-1.39,2.75A3.88,3.88,0,0,1,75,49.15c-.13-1-.13-1-1.07-.69l-1,.65c-.28.38-.9.58-.55,1.27.08.15-.14.47-.27.69A5.25,5.25,0,0,1,71,52.37l5.37,3.1v6.38h.66a3.58,3.58,0,0,0,1.66-.47c.13-.08.3-.18.27-.37s-.22-.13-.34-.17a14.18,14.18,0,0,1-1.78-.56V60c.84,0,1.68,0,2.53,0a3,3,0,0,0,1.7-.56c.44-.31.49-.62,0-1a4.3,4.3,0,0,1-1.28-1,22,22,0,0,0,2.43,0l.3-.08.43-.35c.39-.33.44-.64,0-.94a1.23,1.23,0,0,1-.21-.19c-.12-.12-.37-.18-.3-.41s.28-.13.43-.16a3.68,3.68,0,0,0,2-1c.34-.36.61-.68,0-1-.32-.16-.18-.36,0-.54l1.27-1.09,1.7-1.68a3.81,3.81,0,0,1,.81-1,15.28,15.28,0,0,0,1.62-2.65l.09-.17h0C90.53,45.75,90.25,45.59,89.76,45.6Z" transform="translate(-9.59 -4.23)"/><path class="cls-3" d="M32.67,57.81a2.37,2.37,0,0,0-.31-.23l-.23-.19-2,2Z" transform="translate(-9.59 -4.23)"/></svg>